<?xml version="1.0" encoding="utf-8"?>
<!-- Generator: Adobe Illustrator 23.1.1, SVG Export Plug-In . SVG Version: 6.00 Build 0)  -->
<svg version="1.1" id="Layer_1" xmlns="http://www.w3.org/2000/svg" xmlns:xlink="http://www.w3.org/1999/xlink" x="0px" y="0px"
	 viewBox="0 0 459 524" style="enable-background:new 0 0 459 524;" xml:space="preserve">
<style type="text/css">
	.st0{fill:#3C3C3B;}
	.st1{fill:#33FF00;}
	.st2{fill:#006600;}
	.st3{fill:#333333;}
	.st4{fill:#00FF33;}
	.st5{font-family:'MyriadPro-Regular';}
	.st6{font-size:21.5334px;}
	.st7{font-size:13.0327px;}
	.st8{font-size:70.0391px;}
	.st9{font-size:29px;}
	.st10{font-size:19.2028px;}
	.st11{font-size:51.1812px;}
</style>
<path class="st0" d="M445.93,397.18c-3.49-26.32-17.25-49.78-33.39-70.35c-14.89-18.97-32.62-39.39-57.33-44.17
	c1.5-14.46,1.68-29.08,1.52-43.61c-0.14-13.35,1.01-28.75-2.77-41.63c-0.1-0.35-0.28-0.65-0.47-0.93c-0.01-0.15-0.05-0.3-0.09-0.45
	c5.86-0.28,11.45-3.54,14.13-9.03c2.74-5.61,1.93-14.45-3.47-18.13c0.48-1.63-0.23-3.7-2.11-4.09c-10.61-2.18-22.01-0.99-32.81-1.01
	c-11.52-0.01-23.4-0.8-34.88,0.14c-7.24,0.59-16.52,6.78-12.84,13.48c-0.81,3.58,0.6,7.56,2.8,10.6c2.34,3.25,5.95,5.38,9.86,5.84
	c1,30.37,2.59,60.16,0.18,90.52c-39.01,17.24-68.77,51.61-78.28,93.58c-9.61,42.42,0.98,98.77,38.82,125.04
	c19.17,13.31,45.33,16.66,68.14,16.3c23.2-0.36,46.59-5.79,66.88-17.26C426.43,481.37,451.59,439.82,445.93,397.18z M397.07,486.92
	c-33.21,24.74-81.64,30.32-120.56,17.12c-43.27-14.67-59.11-68.56-54.74-109.97c4.87-46.21,35.79-85.46,77.85-104.11
	c1.2-0.53,1.74-1.97,1.82-3.17c2-30.78,2.59-62.87-2.95-93.35c2.24-1.33,1.74-4.94-1.41-5.36c-2.72-0.36-5.07-2.43-6.53-4.64
	c-1.43-2.15-1.37-4.36-1.74-6.7c1.82-1.89,3.64-3.78,5.46-5.66c0.97,0,1.94,0,2.91,0c3.08-0.61,7.44,0.12,10.66,0.18
	c6.39,0.11,12.79,0.18,19.18,0.25c10.21,0.11,21,1.25,31.2-0.04c0.01,0.07,0.01,0.14,0.03,0.21c1.14,3.78,3.75,6.68,2.32,10.92
	c-1.53,4.54-6.39,6.15-10.7,5.08c-3.21-0.8-5.37,1.95-4.92,4.92c0.29,1.92,0.92,3.48,1.91,4.96c-2.28,13.28-0.02,28.04,0.24,41.51
	c0.29,14.98,0.11,29.99,0.83,44.95c0.01,0.23,0.05,0.44,0.09,0.64c-1.41,2.42-0.94,5.8,2.53,6.31
	c21.47,3.21,36.54,19.15,49.87,35.07c13.51,16.15,25.87,34.1,32.54,54.24C446.05,419.92,430.16,462.27,397.07,486.92z"/>
<path class="st0" d="M415.08,375.58c-0.73-1.45-1.93-2.01-3.14-1.95c0.22-0.99,0.13-2.07-0.43-3.03c-4.17-7.27-20.64-4.21-27.6-4.51
	c-15.47-0.67-30.93-1.37-46.4-1.99c-31.52-1.27-63.47-3.69-95.01-2.32c-1.37,0.06-2.17,0.81-2.45,1.74
	c-0.9-0.56-2.33-0.29-2.73,0.95c-9.95,30.88-10.75,69.66,8.18,97.43c18.47,27.1,53.46,33.14,84.19,30.82
	c29.35-2.22,58.92-14.11,76.74-38.43C423.04,431.62,427.96,401.09,415.08,375.58z M397.46,453.34c-17.73,21.37-45.94,30.98-73,32.04
	c-29.29,1.14-60.7-5.56-75.96-33.03c-15.08-27.15-8.86-56.74-7.75-86.07c0.43,0.44,1,0.78,1.76,0.88c27,3.48,54.58,3.91,81.75,5.18
	c13.26,0.62,26.51,1.19,39.77,1.76c6.63,0.28,13.26,0.56,19.89,0.84c5.37,0.23,17.21,3.36,19.45-2.33c0,0.05-0.01,0.09-0.01,0.13
	c0,0.2,0,0.39,0,0.59c0.01,2.01,1.67,3.64,3.68,3.68l0.8,0.01c0.07,0,0.13-0.02,0.2-0.03c-0.15,0.78-0.07,1.63,0.36,2.5
	C420.29,403.71,414.39,432.94,397.46,453.34z"/>
<path class="st0" d="M261.49,394.11c-0.45,0.3-1.45,0.68-1.92,0.74c0.11-0.01-1.03-0.1-0.66-0.02c-0.05-0.01-0.36-0.1-0.48-0.12
	c-0.02-0.04-0.34-0.24-0.14-0.05c-0.35-0.33-0.36-0.65-0.28-1.14c0.12-0.72,0.49-1.23,1.2-1.42c2.07-0.55,1.74-4.1-0.52-3.86
	c-4.33,0.46-7.29,5.54-4.69,9.36c1.2,1.77,3.35,2.82,5.48,2.65c2.3-0.19,4.54-1.45,4.89-3.92
	C264.6,394.8,263.09,393.07,261.49,394.11z"/>
<path class="st0" d="M262.9,377.89c-0.2-1.95-1.19-3.66-2.5-5.07c-0.67-0.72-1.74-0.93-2.67-0.71c-2.83,0.69-5.94,2-6.88,5.03
	c-0.77,2.48,0.42,5.32,2.97,6.11c2.16,0.67,3.4-2.46,1.51-3.59c-0.23-0.14,0.01-0.85,0.14-1c0.37-0.45,1-0.71,1.66-0.88
	c0.19,0.46,0.33,0.93,0.46,1.4c0.3,1.03,0.22,2.27,0.88,3.15c0.64,0.85,1.54,1.13,2.53,0.66
	C262.78,382.16,263.08,379.61,262.9,377.89z"/>
<path class="st0" d="M279.48,386.46c-0.4-1.9-2.82-2.24-4.1-1.08c-1.06,0.96-2.3,3.13-3.97,2.09c-1.4-0.87-1.02-3.26,0.24-4.06
	c2.23-1.41,0.29-4.48-2.02-3.46c-4.55,2-5.18,8.84-1.3,11.78C272.22,394.7,280.71,392.35,279.48,386.46z"/>
<path class="st1" d="M336.24,457.44c-0.55-2.15-3.32-2.24-4.45-0.58c-0.79,1.17-1.27,2.54-2.43,3.44c-0.32,0.25-0.82,0.55-1.23,0.62
	c-0.23,0.04-0.44,0.03-0.66-0.01c-0.18-0.03-0.2-0.02-0.3-0.09c-0.44-0.31-0.68-0.94-0.75-1.65c-0.07-0.69-0.02-1.26,0.75-1.46
	c1.92-0.5,1.58-3.62-0.48-3.52c-5.18,0.27-6.38,7.25-3.15,10.53C328.32,469.58,337.87,463.85,336.24,457.44z"/>
<path class="st0" d="M347.56,453.01c-4.83,2.53-5.67,9.03-2.41,13.06c1.84,2.28,5.09-0.62,3.88-2.99c-0.75-1.47-0.23-3.83,1.46-4.41
	c1.98-0.68,3.36,1.31,4.49,2.56c1.64,1.81,4.76,0.37,4.75-1.97C359.69,453.51,352.2,450.58,347.56,453.01z"/>
<path class="st0" d="M346.21,444.04c-0.5-2.02-2.88-2.3-4.29-1.13c0.39-0.33-0.49,0.39-0.47,0.37c-0.49,0.58-0.63,0.76-0.41,0.55
	c0.08-0.08,0.06-0.05-0.07,0.08c-0.15,0.15-0.31,0.3-0.48,0.43c-0.19,0.16,0.07-0.02-0.3,0.2c-0.59,0.34-0.94,0.53-1.49,0.26
	c-0.21-0.11-0.57-0.54-0.74-1.05c-0.2-0.64-0.17-1.42,0.28-1.96c0.64-0.76,0.79-1.76,0.15-2.58c-0.54-0.69-1.76-1.11-2.54-0.51
	c-3.52,2.72-3.68,8.43,0.28,10.91C340.03,452.02,347.54,449.46,346.21,444.04z"/>
<g>
	<path class="st0" d="M388.57,393.28c-0.71-2.74-2.88-5.16-5.66-5.84c-6.1-1.5-11.65,6.06-8.09,11.35c1.43,2.13,5.54,0.84,4.45-1.87
		c-0.4-0.98-0.37-1.92,0.31-2.78c0.55-0.69,1.29-1.13,1.89-0.92c0.63,0.22,1.08,1.08,1.22,1.88c0.03,0.15,0.02,0.59-0.03,0.86
		c-0.07,0.35-0.16,0.68-0.23,1.03c-0.03,0.18-0.02,1.07-0.02,1.35c0.04,1.57,1.4,2.46,2.86,2.23c0.24-0.05,0.87-0.18,0.98-0.23
		c0.44-0.19,0.83-0.47,1.17-0.82c0.54-0.56,0.94-1.38,1.15-2.11C388.96,396.1,388.9,394.58,388.57,393.28z"/>
	<path class="st0" d="M385.34,400.55c-0.02,0-0.05,0-0.07,0.01C385.15,400.59,385.12,400.6,385.34,400.55z"/>
	<path class="st0" d="M382.41,398.33C382.41,398.33,382.41,398.33,382.41,398.33C382.42,398.45,382.41,398.43,382.41,398.33z"/>
</g>
<path class="st0" d="M402.82,395.65c-0.37-0.21-0.79-0.32-1.22-0.31c-0.04-0.13-0.07-0.26-0.15-0.38c-1.76-2.65-5.61-2.7-7.76-0.51
	c-1.2,1.22-1.84,2.89-2.3,4.5c-0.57,2,0.26,3.58,1.92,4.73c2.32,1.61,5.51,1.45,7.91,0.07
	C403.88,402.22,406.37,397.71,402.82,395.65z M398.29,398.17c-0.08,0.07-0.1,0.08-0.14,0.12c-0.12,0.08-0.24,0.16-0.36,0.22
	c-0.3,0.15-0.58,0.22-0.85,0.25c0.35-1.3,0.97-2.74,1.82-1.73c0.07,0.08,0.15,0.12,0.23,0.18c-0.16,0.26-0.31,0.54-0.47,0.85
	C398.64,397.83,398.44,398.04,398.29,398.17z"/>
<path class="st1" d="M299.88,325.13c-1.87-5.21-10.31-9.53-14.18-4.13c-6.41-0.33-12.08,5.26-11,11.99
	c1.19,7.43,9.43,11.89,16.38,9.45C297.96,340.02,302.41,332.19,299.88,325.13z M289.8,337.02c-3.62,1.54-7.79-0.08-9.4-3.7
	c-1.95-4.36,1.82-8.95,6.34-8.99c0.45,0,0.82-0.2,1.09-0.48c3.31-0.78,6.47-0.37,7.34,3.71
	C295.99,331.49,293.32,335.51,289.8,337.02z"/>
<path class="st2" d="M289.9,328.22c-1.04,0.51-1.48,1.33-2.76,1.3c-0.99-0.02-2.11-0.51-2.45-1.51c-0.43-1.26-2.66-1.16-2.48,0.34
	c0.28,2.37,2,4.02,4.34,4.42c2.12,0.36,5.66-0.55,5.54-3.29C292.05,328.33,290.91,327.73,289.9,328.22z"/>
<path class="st3" d="M336.64,296.12c-5.77-5.86-17.43-6.22-22.92,0.17c-0.07-0.04-0.11-0.1-0.19-0.14
	c-10.77-4.65-9.81,14.22-7.02,19.54c5.17,9.86,18.11,13.22,27.4,6.96C342.61,316.81,344.05,303.64,336.64,296.12z M333.56,315.5
	c-3.82,4.9-11.38,6.29-16.84,3.4c-3.13-1.65-5.62-4.83-6.83-8.14c-0.57-1.57-2.49-12.66,2.2-11.42c0.12,1.3,1.76,2.14,2.95,1.1
	c4.77-4.13,11.58-6.63,17.06-1.91C336.87,302.62,337.34,310.65,333.56,315.5z"/>
<path class="st3" d="M330.82,303.71c-2.09-2.79-5.64-4.35-9.08-3.66c-1.51,0.3-1.19,2.86,0.37,2.71c2.47-0.23,4.18,1.13,5.21,3.31
	c0.4,0.84,0.7,1.74,0.65,2.68c-0.06,1.14-0.62,2.12-0.62,3.29c-0.01,1.58,1.86,2.76,3.25,1.86
	C333.96,311.72,332.88,306.46,330.82,303.71z"/>
<path class="st0" d="M310.45,127.74c-4.87-0.87-14.4,1.66-14.26,7.88c-4.7,4.98-2.67,13.63,3.74,16.98
	c7.75,4.05,16.63-0.46,19.55-8.31C322.18,137.03,318.22,129.13,310.45,127.74z M306.76,148.71c-6.46,0.66-12.2-7.77-5.7-12.02
	c0.9-0.59,1.03-1.5,0.74-2.24c0.28-0.28,0.58-0.54,0.93-0.76c1.48-0.93,3.28-1.31,5.01-1.25c4.17,0.14,7.59,3.02,7.17,7.43
	C314.51,144.07,311.11,148.26,306.76,148.71z"/>
<path class="st0" d="M311.4,139.66c-0.22-2.11-1.63-4.23-3.98-4.08c-1.51,0.1-2.09,2.59-0.38,2.83c0.67,0.09,0.81,0.43,0.72,1.16
	c-0.01-0.01-0.05,0.17-0.08,0.28c-0.02,0.03-0.04,0.06-0.05,0.09c-0.13,0.06-0.27,0.11-0.4,0.18c0.99-0.42-1.13,0.36-0.25,0.08
	c-2.58,0.82-2.07,4.54,0.63,4.68c0.76,0.04,1.44-0.15,2.07-0.56c0.39-0.25,0.75-0.58,0.99-0.98c0.13-0.22,0.46-1.18,0.25-0.63
	C311.31,141.68,311.51,140.75,311.4,139.66z"/>
<path class="st1" d="M360.41,105.85c-6.85-6.8-18.67-7.85-26.74-2.81c-0.25,0.01-0.51,0.06-0.77,0.21
	c-10.64,6.08-13.27,21.67-6.06,31.33c7.28,9.75,22.91,11.61,32.19,3.69C368.31,130.36,369.12,114.5,360.41,105.85z M353.93,134.23
	c-7.17,5.13-18.71,3.09-23.39-4.47c-3.6-5.81-2.96-12.48,0.07-18.03c0.5-0.03,1.01-0.19,1.44-0.56c6.67-5.67,17.16-7.87,23.93-0.88
	C362.26,116.76,361.29,128.96,353.93,134.23z"/>
<path class="st2" d="M339.87,111.04c-3.82-0.32-7.23,2.21-8.91,5.54c-1.58,3.14-2.01,9.12,2.15,10.41c1.06,0.33,2.6-0.39,2.78-1.58
	c0.34-2.33-1-4.22-0.29-6.57c0.7-2.31,2.34-3.97,4.71-4.51C342.26,113.88,341.66,111.19,339.87,111.04z"/>
<path class="st0" d="M324.67,66.99c-5.88-5.08-15.94-4.09-20.05,2c-7.37,3.17-11.4,12.01-7.63,19.88
	c4.65,9.69,17.38,12.71,25.9,6.28C331.79,88.44,333.47,74.6,324.67,66.99z M319.07,90.79c-5.54,3.78-13.34,2.18-16.87-3.67
	c-2.34-3.89-1.67-8.48,0.66-12.04c0.44,1.65,3.15,2.31,3.94,0.53c2.71-6.1,9.94-9.24,15.04-3.53
	C326.88,77.69,325.09,86.69,319.07,90.79z"/>
<path class="st0" d="M315.69,72.93c-1.56-1.06-3.46,1.38-2.03,2.63c1.14,0.99,1.52,2.31,1.23,3.78c-0.3,1.58-1.25,2.1-2.53,2.85
	c-2.37,1.38-0.81,5.51,1.92,4.55C319.94,84.74,320.35,76.11,315.69,72.93z"/>
<path class="st0" d="M351.98,33.7c-6.75-3.41-17.97-0.46-19.72,7.66c-0.13,0.62,0.12,1.19,0.53,1.57
	c-1.9,5.39-0.59,11.77,4.18,15.55c6.52,5.16,17.16,2.91,21.24-4.26C362.19,47.25,359.12,37.31,351.98,33.7z M354.39,50.21
	c-1.95,5.12-8.99,7.28-13.67,4.68c-5.18-2.87-5.91-10.56-2.32-14.89c0.15-0.19,0.25-0.38,0.32-0.58c2.66-2.01,5.7-3.22,9.37-2.19
	C353.37,38.71,356.32,45.15,354.39,50.21z"/>
<path class="st0" d="M348.27,47.43c-1.31-0.82-2.44-1.63-2.94-3.17c-0.48-1.49-0.33-3.31,1.06-4.23c1.71-1.12,0.24-3.49-1.57-2.69
	c-6.27,2.77-4.5,15.15,2.98,13.64C349.52,50.64,349.6,48.26,348.27,47.43z"/>
<path class="st0" d="M149.2,282.99c-0.73-7.57-7.35-10.9-14.27-11.84c-11.71-1.59-23.94-2.07-35.74-1.99
	c-5.01,0.03-43.8,0.95-40.17,12.29c-2.37,2.52,0.59,7.86,3.22,9.5c4.53,2.82,10.19,3.18,15.19,1.63
	c-1.6,25.98-1.28,52.01-0.59,78.03c0.36,13.8,0.87,27.59,1.6,41.38c0.53,10.16,1.19,20.91,6.13,30.05
	c8.89,16.45,29.34,20.75,41.89,5.74c6.38-7.63,8.49-17.34,8.96-27.07c0.62-12.76-0.45-25.72-0.86-38.48
	c-0.94-29.84-1.88-59.69-2.82-89.53c5.88,1.85,12.93-0.76,16.52-5.67c0.61-0.83,0.57-1.65,0.19-2.31
	C148.96,284.36,149.28,283.78,149.2,282.99z M130.35,288.09c-0.69-0.06-1.2,0.26-1.51,0.73c-1.05,0.15-1.97,0.91-1.94,2.29
	c0.63,23.08,1.25,46.17,1.88,69.25c0.31,11.34,0.62,22.68,0.92,34.02c0.3,11.21,1.59,23.03-0.4,34.15
	c-1.76,9.81-7.29,20.18-17.59,23.05c-10.14,2.83-19.3-5.16-23.34-13.78c-4.91-10.48-4.52-23.02-5.04-34.33
	c-0.52-11.36-0.93-22.72-1.22-34.08c-0.68-26.38-0.44-52.78-1.1-79.16c-0.04-1.71-1.95-2.09-2.91-1.19
	c-3.27,0.13-6.52-0.09-9.71-0.96c-1.71-0.47-3.83-1.1-4.76-2.72c-0.64-1.12-0.23-2.5-0.46-3.78c-0.03-0.18-0.11-0.33-0.2-0.48
	c0.87-1.57,2.78-2.97,4.03-3.38c1.61-0.53,3.36-0.82,5.03-1.15c3.59-0.73,7.21-1.26,10.86-1.65c6.96-0.74,13.98-0.85,20.98-0.71
	c6.65,0.13,13.29,0.51,19.92,0.98c7.35,0.52,18.5-0.42,20.95,8.4c0,0.01,0.01,0.03,0.02,0.04c-0.16,0.09-0.32,0.19-0.47,0.32
	C140.04,287.67,135.88,288.54,130.35,288.09z"/>
<path class="st0" d="M135.17,280.51c-21.65,2.19-42.2,1.83-63.82-0.49c-0.91-0.1-1.09,1.39-0.21,1.59
	c20.64,4.7,43.53,4.9,64.34,1.18C136.76,282.57,136.48,280.38,135.17,280.51z"/>
<path class="st0" d="M125.38,350.01c-0.09-1.15-1.19-1.62-2.04-1.4c0.18-0.58,0.04-1.3-0.54-1.61c-9.79-5.27-24.31-5.09-34.49-1.14
	c-0.25,0.1-0.41,0.3-0.5,0.54c-0.02-0.16-0.03-0.33-0.04-0.49c-0.1-1.07-1.62-1.09-1.68,0c-1.24,21.11,0.91,42.72,2.98,63.72
	c1.22,12.35,2.73,34.97,20.14,34.74c14.99-0.19,18.44-20.27,19.27-31.56C130.03,392.13,127.03,370.63,125.38,350.01z M109.16,441.09
	c-18.62,0.08-17.17-31.97-18.2-44.42c-1.36-16.48-1.58-33.05-3.08-49.51c0.12,0.19,0.33,0.32,0.65,0.3
	c5.63-0.38,11.26-0.94,16.91-0.65c5.72,0.29,11.07,1.96,16.7,2.66c0.1,0.01,0.19-0.01,0.28-0.02c-0.05,0.17-0.08,0.35-0.07,0.57
	c0.99,16.06,2.66,32.1,3.24,48.18C125.99,409.76,126.82,441.02,109.16,441.09z"/>
<path class="st0" d="M97.2,353.32c-0.76-0.46-1.65-0.58-2.54-0.6c0.02-0.72,0.31-1.43,0.92-1.86c0.96-0.68,0.15-2.09-0.92-1.58
	c-1.94,0.93-2.83,3.03-2.38,5.08c0.13,0.6,0.7,0.9,1.25,0.96c1.25,0.12,2.52,0.22,3.67-0.36C97.86,354.63,97.78,353.67,97.2,353.32z
	"/>
<path class="st0" d="M103.2,350.92c-0.59-0.66-1.64-1.02-2.49-1.13c-1-0.13-1.8,0.08-2.69,0.51c-0.81,0.39-0.2,1.5,0.57,1.36
	c0.79-0.14,1.64,0.09,2.32,0.53c-0.14,0.35-0.3,0.7-0.53,1.02c-0.47,0.67-0.91,1.12-0.7,2.01c0.13,0.53,0.62,0.81,1.12,0.85
	c1.2,0.11,1.81-1.18,2.2-2.11C103.37,353.11,103.91,351.71,103.2,350.92z"/>
<path class="st0" d="M96.9,357.57c-1.55-0.58-3.15,0.56-3.7,1.99c-0.56,1.47-0.06,4.3,2.11,3.76c0.55-0.14,0.8-0.7,0.69-1.22
	c-0.15-0.77-0.67-1.05-0.52-1.83c0.13-0.67,0.48-1.29,1.23-1.24C97.59,359.08,97.63,357.85,96.9,357.57z"/>
<path class="st4" d="M115.2,432.32c-0.17-0.7-1.04-1.03-1.65-0.67c-0.91,0.54-1.44,1.45-2.56,1.66c-0.73,0.14-1.36-0.02-1.91-0.36
	c0.25-0.33,0.54-0.62,0.92-0.9c0.4-0.3,0.06-0.94-0.4-0.69c-0.73,0.4-1.28,0.56-2.11,0.62c-0.97,0.07-1.42,0.95-1.04,1.81
	c0.82,1.87,3.02,2.63,4.93,2.41C113.25,435.98,115.75,434.56,115.2,432.32z"/>
<path class="st4" d="M113.76,423.31c-0.9,0.5-1.52,1.51-1.56,2.53c-0.05,1.1,0.46,1.84,1.28,2.43c0.54,0.38,1.25-0.37,0.9-0.9
	c-0.03-0.05-0.11-0.23-0.15-0.27c0.01-0.01,0.01-0.02,0.01-0.04c0.05-0.21,0.02-0.43,0.07-0.64c0.07-0.3,0.26-0.68,0.45-0.81
	c0.59-0.39,1.06,0.52,1.07,1.02c0.04,1.5,2.22,1.84,2.64,0.36C119.2,424.42,116.07,422.01,113.76,423.31z"/>
<path class="st4" d="M110.24,422.04c-0.72,0.97-1.46,3.06-2.78,3.36c-0.68,0.16-2.1-0.95-1.36-1.56c0.61-0.51-0.17-1.47-0.84-1.08
	c-2.28,1.34-0.99,4.34,1.15,5.11c2.98,1.07,5.56-2.33,6.1-4.87C112.81,421.57,111.07,420.93,110.24,422.04z"/>
<path class="st0" d="M101.42,323.11c-1.79-2.84-6.13-4.54-9.14-2.81c-1.28,0.5-2.38,1.21-3.27,2.55c-1.16,1.73-1.46,3.79-0.86,5.79
	c1.23,4.06,5.76,6.58,9.74,4.76C101.64,331.68,103.73,326.77,101.42,323.11z M96.26,330.59c-2.29,0.82-4.51-0.92-5.2-3.06
	c-0.58-1.8,0.24-3.61,1.55-4.94c2.24-0.45,4.68-0.42,6.09,1.76C100.15,326.61,98.67,329.73,96.26,330.59z"/>
<g>
	<path class="st0" d="M95.67,325.95C95.68,325.92,95.63,325.94,95.67,325.95L95.67,325.95z"/>
	<path class="st0" d="M97.39,326.08c-0.23-0.58-0.85-0.75-1.33-0.35c0.1-0.08-0.34,0.2-0.02,0.04c-0.12,0.06-0.24,0.11-0.36,0.18
		c0,0,0,0,0.01,0c-0.01,0-0.01,0-0.01,0c-0.01,0.01-0.03,0.01-0.04,0.02c0.02-0.01,0.02-0.02,0.02-0.02c-0.12-0.01-0.14,0.01-0.17,0
		c-0.04-0.01-0.32-0.09-0.22-0.05c-0.01-0.01-0.11-0.06-0.15-0.08c-0.02-0.02-0.05-0.06-0.07-0.09c0-0.01,0-0.01,0-0.01
		c0.22-0.86-0.97-1.38-1.44-0.61c-0.7,1.16,0.16,2.35,1.3,2.74C96.05,328.25,97.98,327.61,97.39,326.08z"/>
	<path class="st0" d="M95.69,325.96c-0.01,0-0.01,0-0.02-0.01c0,0-0.01,0-0.01,0.01C95.67,325.96,95.67,325.96,95.69,325.96
		C95.68,325.96,95.68,325.96,95.69,325.96z"/>
</g>
<path class="st0" d="M118.08,302.82c-1.99-4.42-9.59-7.79-13.62-4.11c-5.01,0.3-8.84,5.14-7.82,10.38c1.3,6.65,8.4,10.34,14.72,8.44
	C117.44,315.69,120.7,308.65,118.08,302.82z M111.27,314.3c-4.04,1.69-8.76,0.3-11.03-3.53c-2.44-4.11-0.33-9.06,3.8-10.45
	c0.18,0.17,0.45,0.26,0.75,0.19c4.02-0.85,8.08-1.53,10.48,2.83C117.49,307.4,115.39,312.58,111.27,314.3z"/>
<path class="st0" d="M112.56,304.68c-1.01-1.59-2.76-2.5-4.63-2.09c-0.98,0.21-0.77,1.8,0.24,1.76c1.06-0.04,1.96,0.65,2.38,1.61
	c0.46,1.05-0.35,2.07,0.21,3.05c0.17,0.3,0.56,0.56,0.91,0.52C113.97,309.3,113.44,306.06,112.56,304.68z"/>
<path class="st1" d="M95.62,239.27c-5.16-3.67-15.2-2.8-17.42,4.02c-0.06,0.17-0.06,0.32-0.04,0.46c-4.27,3.07-5.15,9.88-1.96,14.39
	c4.74,6.69,14.56,7.02,20.43,1.69C102.71,254.32,102.44,244.12,95.62,239.27z M95.25,256.69c-3.64,3.94-9.59,4.89-14.13,1.92
	c-6.18-4.04-4.63-11.93,1.28-15.14c0.37-0.2,0.39-0.73,0.16-1.03c3.33-2.26,6.96-3.5,10.97-0.79
	C98.42,244.97,99.26,252.36,95.25,256.69z"/>
<path class="st2" d="M85.11,244.78c-2.01,0.49-3.43,2.17-3.86,4.15c-0.4,1.83,0.03,4.71,2.29,4.96c0.5,0.05,1.04-0.5,0.99-0.99
	c-0.11-1.2-0.99-2.06-0.94-3.33c0.05-1.3,0.73-2.63,1.97-3.13C86.57,246.04,86.22,244.52,85.11,244.78z"/>
<path class="st0" d="M125.82,225.81c-3.15-4.05-10.46-5.13-13.75-0.82c-4.03,0.6-5.84,6.16-4.41,9.89c2.2,5.71,9.67,8.68,15.02,5.5
	C127.5,237.5,129.37,230.36,125.82,225.81z M122.4,236.68c-2.92,3.06-7.72,2.37-10.57-0.45c-2.29-2.26-3.09-8.12,0.22-9.52
	c0.24,0.12,0.53,0.14,0.8-0.01c0.16-0.09,0.33-0.18,0.5-0.27c0.19-0.01,0.38-0.03,0.59-0.02c0.36,0.02,0.57-0.24,0.63-0.53
	c2.68-1.04,5.69-1.09,8.04,0.96C125.55,229.38,124.88,234.08,122.4,236.68z"/>
<path class="st0" d="M119.1,228.56c-0.75-0.77-1.84-1.16-2.89-0.86c-1.8,0.52-2.7,2.83-1.65,4.4c0.72,1.06,2.26,0.15,1.71-1
	c-0.16-0.34,0.08-0.93,0.44-0.97c0.22-0.03,0.43,0.1,0.58,0.25c0.04,0.04,0.28,0.42,0.29,0.41c0.11,0.23,0.18,0.45,0.4,0.64
	c0.42,0.37,1.01,0.39,1.43,0C120.25,230.66,119.79,229.26,119.1,228.56z"/>
<path class="st0" d="M114.1,195.26c-3.04-8.87-14.16-12.94-21.83-7.25c-7.15-0.8-10.3,9.84-9.33,16.02
	c1.54,9.75,10.67,15.18,20.08,12.26C111.89,213.55,117.16,204.18,114.1,195.26z M104.61,212.28c-6.19,3.35-14.24,1.69-17.46-4.8
	c-2.73-5.49-1.79-15.79,4.75-17.53c0.32,0.41,0.88,0.63,1.53,0.29c0.37-0.19,0.75-0.36,1.14-0.51c0.14,0.01,0.28,0.01,0.43,0.03
	c0.22,0.03,0.38-0.14,0.43-0.34c6.11-2.06,13.26-0.04,15.63,6.69C113.29,202.44,110.44,209.13,104.61,212.28z"/>
<path class="st0" d="M105.24,198.78c-0.54-0.57-1.65-0.32-1.82,0.48c-0.35,1.65,0.24,3.28-0.27,4.97c-0.58,1.92-1.87,3.43-3.62,4.38
	c-0.72,0.39-0.23,1.61,0.56,1.34c2.3-0.78,4.08-2.38,5.15-4.56C106.17,203.51,106.85,200.47,105.24,198.78z"/>
<path class="st0" d="M129.73,165.8c-3.37-4.11-10.97-4.96-14.53-0.61c-0.39,0.48-0.29,1.11,0.06,1.48c-2.83,3-3.28,7.97-0.73,11.45
	c3.05,4.17,9.51,4.98,13.62,1.94C132.53,176.82,133.14,169.96,129.73,165.8z M126.46,177.88c-3.02,2.27-8,1.65-10.15-1.55
	c-2.15-3.2-1.07-7.69,1.57-10.24c3.14-1.4,6.85-1.65,9.45,1.15C130.04,170.17,129.67,175.47,126.46,177.88z"/>
<path class="st0" d="M123.37,167.94c-1.77-1.51-4.97-0.11-4.76,2.33c0.1,1.17,1.69,1.16,1.81,0c0.03-0.3,0.36-0.53,0.61-0.64
	c0.39-0.17,0.67-0.11,0.99,0.07C123.08,170.32,124.37,168.79,123.37,167.94z"/>
<path class="st0" d="M94.99,158.86c-2.78-2.17-7.6-2.35-10.32,0.04c-4.53,1.53-4.87,7.42-2.23,10.88c3.15,4.15,9.32,5.12,12.98,1.08
	C98.46,167.51,98.76,161.8,94.99,158.86z M94.28,168.29c-4.71,7.3-13.94-1.77-10.92-6.72c0.3,0.55,1.04,0.84,1.61,0.27
	c2.12-2.1,4.94-3.13,7.78-1.63C95.8,161.8,95.99,165.62,94.28,168.29z"/>
<path class="st0" d="M92.36,161.15c-1.42-0.97-3.39,0.07-4.48,1.09c-1.19,1.11-1.59,2.54-1.36,4.12c0.1,0.68,1.06,0.54,1.25,0
	c0.3-0.89,1.06-1.78,1.83-2.32c0.84-0.58,1.89-0.56,2.76-1.06C93.09,162.57,93.01,161.59,92.36,161.15z"/>
<path class="st0" d="M246.31,126.49c-0.55-5.67-5.52-8.18-10.71-8.88c-8.78-1.19-17.95-1.55-26.81-1.49
	c-3.76,0.03-32.86,0.71-30.13,9.22c-1.78,1.89,0.44,5.89,2.42,7.12c3.39,2.11,7.64,2.38,11.39,1.22
	c-1.2,19.49-0.96,39.01-0.44,58.53c0.27,10.35,0.66,20.7,1.2,31.03c0.4,7.62,0.89,15.68,4.6,22.54c6.67,12.34,22,15.57,31.42,4.31
	c4.79-5.72,6.37-13.01,6.72-20.3c0.47-9.57-0.34-19.29-0.64-28.86c-0.7-22.38-1.41-44.77-2.11-67.15c4.41,1.39,9.7-0.57,12.39-4.25
	c0.46-0.62,0.43-1.24,0.14-1.73C246.13,127.51,246.37,127.08,246.31,126.49z M232.17,130.31c-0.51-0.04-0.9,0.2-1.14,0.55
	c-0.79,0.11-1.48,0.68-1.45,1.71c0.47,17.31,0.94,34.63,1.41,51.94c0.23,8.5,0.46,17.01,0.69,25.51c0.23,8.41,1.19,17.28-0.3,25.61
	c-1.32,7.36-5.47,15.14-13.19,17.29c-7.61,2.12-14.47-3.87-17.51-10.34c-3.68-7.86-3.39-17.26-3.78-25.75
	c-0.39-8.52-0.7-17.04-0.92-25.56c-0.51-19.79-0.33-39.59-0.83-59.37c-0.03-1.28-1.46-1.56-2.18-0.89
	c-2.45,0.09-4.89-0.07-7.28-0.72c-1.28-0.35-2.87-0.83-3.57-2.04c-0.48-0.84-0.17-1.88-0.35-2.84c-0.02-0.13-0.08-0.25-0.15-0.36
	c0.65-1.18,2.08-2.23,3.02-2.53c1.21-0.4,2.52-0.61,3.77-0.86c2.7-0.54,5.41-0.95,8.14-1.24c5.22-0.55,10.49-0.63,15.73-0.53
	c4.99,0.1,9.97,0.39,14.94,0.74c5.51,0.39,13.88-0.31,15.71,6.3c0,0.01,0.01,0.02,0.01,0.03c-0.12,0.07-0.24,0.14-0.35,0.24
	C239.44,130,236.32,130.64,232.17,130.31z"/>
<path class="st0" d="M235.79,124.62c-16.24,1.64-31.65,1.37-47.87-0.36c-0.68-0.07-0.82,1.04-0.16,1.19
	c15.48,3.53,32.65,3.68,48.26,0.89C236.98,126.17,236.77,124.53,235.79,124.62z"/>
<path class="st0" d="M228.44,176.75c-0.07-0.86-0.89-1.21-1.53-1.05c0.14-0.44,0.03-0.98-0.4-1.21c-7.34-3.95-18.23-3.82-25.87-0.86
	c-0.19,0.07-0.31,0.23-0.37,0.4c-0.01-0.12-0.02-0.24-0.03-0.37c-0.08-0.8-1.21-0.82-1.26,0c-0.93,15.84,0.68,32.04,2.24,47.8
	c0.91,9.26,2.05,26.23,15.11,26.06c11.24-0.14,13.83-15.21,14.46-23.67C231.93,208.35,229.69,192.22,228.44,176.75z M216.28,245.07
	c-13.96,0.06-12.88-23.98-13.65-33.32c-1.02-12.36-1.19-24.79-2.31-37.13c0.09,0.14,0.25,0.24,0.49,0.22
	c4.22-0.28,8.45-0.71,12.68-0.49c4.29,0.22,8.3,1.47,12.52,1.99c0.08,0.01,0.14-0.01,0.21-0.02c-0.04,0.13-0.06,0.27-0.05,0.43
	c0.74,12.04,1.99,24.08,2.43,36.14C228.91,221.57,229.53,245.01,216.28,245.07z"/>
<path class="st1" d="M207.31,179.24c-0.57-0.34-1.24-0.43-1.91-0.45c0.02-0.54,0.23-1.07,0.69-1.39c0.72-0.51,0.11-1.57-0.69-1.19
	c-1.45,0.69-2.12,2.27-1.79,3.81c0.1,0.45,0.53,0.68,0.94,0.72c0.94,0.09,1.89,0.16,2.75-0.27
	C207.8,180.22,207.75,179.5,207.31,179.24z"/>
<path class="st1" d="M211.81,177.44c-0.44-0.49-1.23-0.77-1.87-0.85c-0.75-0.09-1.35,0.06-2.02,0.39c-0.61,0.29-0.15,1.12,0.43,1.02
	c0.59-0.1,1.23,0.07,1.74,0.4c-0.1,0.27-0.23,0.52-0.4,0.76c-0.35,0.5-0.68,0.84-0.52,1.5c0.09,0.4,0.47,0.61,0.84,0.64
	c0.9,0.09,1.36-0.88,1.65-1.58C211.94,179.08,212.35,178.03,211.81,177.44z"/>
<path class="st1" d="M207.08,182.42c-1.16-0.43-2.37,0.42-2.78,1.49c-0.42,1.1-0.05,3.23,1.58,2.82c0.41-0.1,0.6-0.53,0.52-0.91
	c-0.12-0.57-0.5-0.79-0.39-1.37c0.1-0.5,0.36-0.97,0.92-0.93C207.6,183.56,207.63,182.63,207.08,182.42z"/>
<path class="st0" d="M220.81,238.49c-0.13-0.53-0.78-0.77-1.23-0.5c-0.68,0.4-1.08,1.09-1.92,1.24c-0.55,0.1-1.02-0.01-1.44-0.27
	c0.19-0.24,0.41-0.47,0.69-0.67c0.3-0.22,0.04-0.71-0.3-0.52c-0.55,0.3-0.96,0.42-1.58,0.46c-0.73,0.05-1.06,0.71-0.78,1.36
	c0.62,1.4,2.27,1.98,3.7,1.81C219.35,241.24,221.23,240.17,220.81,238.49z"/>
<path class="st0" d="M219.73,231.73c-0.67,0.38-1.14,1.13-1.17,1.9c-0.04,0.83,0.34,1.38,0.96,1.82c0.4,0.29,0.93-0.27,0.67-0.67
	c-0.02-0.03-0.08-0.17-0.11-0.2c0-0.01,0.01-0.02,0.01-0.03c0.04-0.16,0.01-0.32,0.05-0.48c0.05-0.23,0.2-0.51,0.34-0.61
	c0.44-0.29,0.79,0.39,0.8,0.77c0.03,1.13,1.67,1.38,1.98,0.27C223.81,232.56,221.46,230.76,219.73,231.73z"/>
<path class="st0" d="M217.09,230.78c-0.54,0.72-1.1,2.29-2.09,2.52c-0.51,0.12-1.58-0.71-1.02-1.17c0.46-0.38-0.13-1.1-0.63-0.81
	c-1.71,1.01-0.74,3.25,0.86,3.83c2.23,0.8,4.17-1.75,4.57-3.65C219.02,230.43,217.71,229.94,217.09,230.78z"/>
<path class="st0" d="M210.48,156.57c-1.34-2.13-4.59-3.4-6.86-2.1c-0.96,0.37-1.78,0.91-2.45,1.92c-0.87,1.3-1.09,2.85-0.64,4.34
	c0.92,3.04,4.32,4.93,7.3,3.57C210.64,163,212.21,159.32,210.48,156.57z M206.61,162.19c-1.72,0.62-3.39-0.69-3.9-2.29
	c-0.43-1.35,0.18-2.71,1.16-3.7c1.68-0.34,3.51-0.31,4.57,1.32C209.52,159.2,208.42,161.54,206.61,162.19z"/>
<g>
	<path class="st0" d="M206.16,158.71C206.17,158.69,206.13,158.7,206.16,158.71L206.16,158.71z"/>
	<path class="st0" d="M207.45,158.81c-0.17-0.44-0.63-0.57-1-0.26c0.07-0.06-0.26,0.15-0.01,0.03c-0.09,0.05-0.18,0.09-0.27,0.14
		c0,0,0,0,0.01,0c-0.01,0,0,0-0.01,0c-0.01,0.01-0.02,0.01-0.03,0.02c0.01-0.01,0.01-0.01,0.02-0.02c-0.09-0.01-0.1,0.01-0.13,0
		c-0.03-0.01-0.24-0.07-0.16-0.04c-0.01,0-0.08-0.05-0.11-0.06c-0.02-0.01-0.04-0.04-0.05-0.07c0,0,0-0.01,0-0.01
		c0.16-0.65-0.73-1.03-1.08-0.45c-0.52,0.87,0.12,1.76,0.97,2.06C206.44,160.43,207.9,159.95,207.45,158.81z"/>
	<path class="st0" d="M206.17,158.71c-0.01,0-0.01,0-0.01,0c0,0,0,0-0.01,0.01C206.16,158.71,206.16,158.71,206.17,158.71
		C206.17,158.71,206.17,158.71,206.17,158.71z"/>
</g>
<path class="st0" d="M222.97,141.36c-1.49-3.31-7.19-5.85-10.22-3.09c-3.76,0.22-6.63,3.85-5.86,7.79c0.98,4.99,6.3,7.76,11.04,6.33
	C222.49,151.01,224.94,145.73,222.97,141.36z M217.86,149.97c-3.03,1.27-6.57,0.22-8.28-2.64c-1.83-3.08-0.24-6.79,2.85-7.84
	c0.14,0.13,0.34,0.19,0.57,0.15c3.02-0.64,6.06-1.15,7.86,2.12C222.53,144.79,220.95,148.67,217.86,149.97z"/>
<path class="st0" d="M218.83,142.75c-0.76-1.19-2.07-1.87-3.47-1.57c-0.74,0.16-0.58,1.35,0.18,1.32c0.79-0.03,1.47,0.49,1.79,1.21
	c0.35,0.79-0.26,1.55,0.15,2.29c0.13,0.22,0.42,0.42,0.68,0.39C219.89,146.22,219.49,143.79,218.83,142.75z"/>
<path class="st0" d="M206.13,93.69c-3.87-2.75-11.4-2.1-13.06,3.02c-0.04,0.13-0.04,0.24-0.03,0.35c-3.2,2.3-3.86,7.41-1.47,10.79
	c3.56,5.02,10.92,5.27,15.32,1.27C211.44,104.98,211.24,97.33,206.13,93.69z M205.85,106.76c-2.73,2.95-7.2,3.67-10.6,1.44
	c-4.63-3.03-3.47-8.95,0.96-11.36c0.28-0.15,0.29-0.55,0.12-0.77c2.5-1.69,5.22-2.63,8.23-0.59
	C208.22,97.96,208.85,103.51,205.85,106.76z"/>
<path class="st0" d="M198.24,97.83c-1.51,0.36-2.57,1.62-2.89,3.12c-0.3,1.37,0.02,3.53,1.72,3.72c0.38,0.04,0.78-0.37,0.74-0.74
	c-0.08-0.9-0.74-1.55-0.71-2.5c0.04-0.97,0.55-1.97,1.48-2.35C199.34,98.77,199.07,97.62,198.24,97.83z"/>
<path class="st0" d="M228.78,83.6c-2.37-3.04-7.85-3.85-10.32-0.61c-3.02,0.45-4.38,4.62-3.31,7.42c1.65,4.28,7.25,6.51,11.26,4.12
	C230.04,92.36,231.44,87.01,228.78,83.6z M226.21,91.75c-2.19,2.29-5.79,1.78-7.93-0.33c-1.71-1.7-2.32-6.09,0.17-7.14
	c0.18,0.09,0.4,0.11,0.6-0.01c0.12-0.07,0.25-0.14,0.37-0.2c0.14-0.01,0.28-0.03,0.44-0.02c0.27,0.01,0.43-0.18,0.47-0.4
	c2.01-0.78,4.27-0.81,6.03,0.72C228.57,86.27,228.08,89.8,226.21,91.75z"/>
<path class="st0" d="M223.74,85.66c-0.56-0.57-1.38-0.87-2.17-0.64c-1.35,0.39-2.03,2.12-1.23,3.3c0.54,0.8,1.7,0.11,1.28-0.75
	c-0.12-0.26,0.06-0.7,0.33-0.73c0.17-0.02,0.32,0.08,0.44,0.19c0.03,0.03,0.21,0.31,0.22,0.31c0.08,0.18,0.14,0.34,0.3,0.48
	c0.32,0.28,0.76,0.29,1.07,0C224.6,87.23,224.26,86.19,223.74,85.66z"/>
<path class="st0" d="M219.99,60.68c-2.28-6.65-10.62-9.7-16.37-5.44c-5.37-0.6-7.73,7.38-7,12.01c1.15,7.31,8,11.39,15.06,9.2
	C218.33,74.4,222.28,67.37,219.99,60.68z M212.87,73.44c-4.65,2.51-10.68,1.27-13.1-3.6c-2.05-4.12-1.34-11.85,3.56-13.15
	c0.24,0.31,0.66,0.47,1.15,0.22c0.28-0.14,0.57-0.27,0.85-0.39c0.11,0.01,0.21,0.01,0.32,0.02c0.17,0.02,0.28-0.11,0.32-0.25
	c4.59-1.54,9.95-0.03,11.73,5.01C219.38,66.07,217.24,71.08,212.87,73.44z"/>
<path class="st0" d="M213.34,63.32c-0.41-0.43-1.24-0.24-1.36,0.36c-0.26,1.24,0.18,2.46-0.2,3.73c-0.44,1.44-1.4,2.57-2.71,3.29
	c-0.54,0.29-0.17,1.21,0.42,1c1.72-0.58,3.06-1.79,3.86-3.42C214.03,66.87,214.55,64.59,213.34,63.32z"/>
<path class="st0" d="M231.71,38.59c-2.53-3.08-8.23-3.72-10.9-0.46c-0.29,0.36-0.21,0.83,0.05,1.11c-2.13,2.25-2.46,5.98-0.55,8.59
	c2.29,3.13,7.13,3.73,10.22,1.45C233.81,46.85,234.27,41.71,231.71,38.59z M229.26,47.64c-2.27,1.7-6,1.24-7.61-1.16
	c-1.62-2.4-0.8-5.76,1.17-7.68c2.36-1.05,5.14-1.24,7.09,0.86C231.94,41.86,231.66,45.84,229.26,47.64z"/>
<path class="st0" d="M226.94,40.19c-1.33-1.13-3.73-0.08-3.57,1.75c0.07,0.88,1.27,0.87,1.36,0c0.02-0.23,0.27-0.4,0.46-0.48
	c0.3-0.13,0.5-0.08,0.74,0.05C226.72,41.97,227.69,40.83,226.94,40.19z"/>
<path class="st0" d="M205.65,33.38c-2.09-1.62-5.7-1.76-7.74,0.03c-3.4,1.14-3.65,5.56-1.67,8.16c2.37,3.11,6.99,3.84,9.73,0.81
	C208.26,39.86,208.48,35.58,205.65,33.38z M205.12,40.45c-3.53,5.48-10.46-1.33-8.19-5.04c0.22,0.41,0.78,0.63,1.21,0.21
	c1.59-1.57,3.7-2.35,5.84-1.23C206.26,35.59,206.41,38.45,205.12,40.45z"/>
<path class="st0" d="M203.68,35.09c-1.07-0.73-2.54,0.05-3.36,0.82c-0.89,0.84-1.19,1.91-1.02,3.09c0.08,0.51,0.8,0.41,0.93,0
	c0.23-0.67,0.79-1.33,1.37-1.74c0.63-0.44,1.42-0.42,2.07-0.79C204.23,36.16,204.17,35.42,203.68,35.09z"/>
<text transform="matrix(1 0 0 1 91.5088 207.6172)" class="st5 st6">?</text>
<text transform="matrix(1 0 0 1 318.5645 315.0352)" class="st5 st7">?</text>
<text transform="matrix(1 0 0 1 292.5645 444.749)" class="st5 st8">?</text>
<text transform="matrix(1 0 0 1 207.5641 217.3999)" class="st5 st9">?</text>
<text transform="matrix(1 0 0 1 279.5641 447.3999)" class="st5 st9">?</text>
<text transform="matrix(1 0 0 1 331.5641 428.3999)" class="st5 st9">?</text>
<text transform="matrix(1 0 0 1 320.5645 445.1992)" class="st5 st10">?</text>
<text transform="matrix(1 0 0 1 97.1641 408.2041)" class="st5 st11">?</text>
<text transform="matrix(1 0 0 1 137.1638 296.6385)" class="st5 st9">?</text>
</svg>
