<?xml version="1.0" encoding="utf-8"?>
<!-- Generator: Adobe Illustrator 23.1.1, SVG Export Plug-In . SVG Version: 6.00 Build 0)  -->
<svg version="1.1" id="Layer_1" xmlns="http://www.w3.org/2000/svg" xmlns:xlink="http://www.w3.org/1999/xlink" x="0px" y="0px"
	 viewBox="0 0 459 524" style="enable-background:new 0 0 459 524;" xml:space="preserve">
<style type="text/css">
	.st0{fill:#4D4D4D;}
	.st1{fill:#00FF00;}
	.st2{fill:#33FF00;}
</style>
<g>
	<path class="st0" d="M153.08,129.06c-52.47,32.88-83.9,105.45-61.86,165.1c7.16,19.37,16.21,38.19,28.13,55.11
		c6.16,8.74,13.3,16.37,20.4,24.33c10.61,11.91,13.59,21.13,17.57,35.56c1.65,5.97,3.42,10.08,6.05,13.05
		c-4.56,5.12-6.33,12.29-2.56,18.48c-9.28,12.02-5.16,19.36,4.8,23.83c-15.35,22.98,16.87,27.78,46.28,27.96
		c0.51,4.54,1.15,9.46,3.02,13.25c2.95,5.94,10.87,6.54,16.72,6.46c6.6-0.1,15.89-0.71,21.63-4.2c5.45-3.3,6.72-10.81,7.2-17.18
		c16.89,0.4,42.54,1.68,51.03-9.06c5.21-6.59,2.72-12.67-2.03-17.33c8.14-4.41,11.32-11.29,4.66-21.97
		c3.71-5.76,1.53-12.94-4.46-19.1c1.15-1.4,2.24-2.99,3.2-5.02c3.81-8.01,1.55-16.76,3.53-25.18c3.01-12.78,11.42-19.32,18.3-29.55
		c10.18-15.13,24.32-29.79,32.29-46.08c26.12-53.37,15.38-127.76-26.22-170C290.19,96.18,213.56,91.15,153.08,129.06z
		 M222.61,236.35c1.43-8.67,6.25-13.68,14.47-15.03c5.8,4.62,7.87,10.57,6.19,17.85c0.3,8.22-3.5,15.51-9.47,21.56
		C226.88,253.73,221.54,245.08,222.61,236.35z M232.93,274.62c7.85,6.43,16.8,11.36,25.03,14c-11.87,40.94-9.09,90.46-6.68,130.95
		c-5.13-0.2-9.98-0.4-14.06-0.37c-6.48,0.02-13.28-0.03-20.11-0.31c-0.43-17.57,1.23-85.24-9.56-132.17
		C217.08,283.78,226.02,279.33,232.93,274.62z M237.21,433.49c17.21-0.15,34.68-0.98,51.84-2.39c4.26-0.35,8.02-0.75,11.34-1.72
		c10.49,10.64-20.15,12.87-27.55,13.16c-11.67,0.47-23.35,0.21-35.03-0.18c-10.73-0.35-21.47-0.67-32.18-1.34
		c-7.26-0.45-45.37-5.04-32.58-13.22c1.33,0.36,2.78,0.68,4.37,0.96C196.72,432.16,217.66,433.57,237.21,433.49z M297.84,458.45
		c-4.25,0.53-8.49,1.06-12.74,1.58c-5.34,0.47-10.71,0.67-16.07,0.8c-11.97,0.29-23.97-0.12-35.94-0.23
		c-9.67-0.09-19.32-0.24-28.98-0.71c-2.73-0.14-39.04-1.24-34.8-12.08c15.51,7.37,43.92,4.36,57.32,4.86
		c22.81,0.87,52.54,5.2,75.01-2.21C300.38,453.12,299.11,455.79,297.84,458.45z M245.37,499.57c-3.95,1.47-9.6,1.84-13.74,1.9
		c-1.81,0.03-4.35,0.34-6.01-0.46c-1.56-0.75-0.35,0.24-1.37-1.49c-0.95-1.62-1.4-4.51-1.7-7.14c12.27-0.33,22.74-1.2,27.18-1.49
		C249.37,494.51,248.46,498.41,245.37,499.57z M297.79,468.93c-3.54,7.46-9.01,10.59-16.43,9.4c-5.51,0.32-11.03,0.64-16.55,0.96
		c-9.37,0.54-18.75,1.1-28.12,1.52c-7.38,0.33-71.65,2.49-60.96-12.21c0.18-0.25,0.3-0.49,0.43-0.73
		c19.89,4.47,48.27,3.37,56.94,3.45c8.68,0.08,42.17,2.42,64.33-2.66C297.55,468.75,297.65,468.85,297.79,468.93z M362.64,279.48
		c-4.02,19.23-8.04,31.24-20.37,47.43c-10.02,13.15-20.25,26.6-29.27,40.45c-4.51,6.93-8.43,13.89-10.4,21.99
		c-2.73,11.2,1.62,21.58-13.55,27.46c-7.07,2.74-17.05,3.21-27.04,3.07c-2.41-40.94-4.62-88.69,6.83-129.09
		c20.54,1.7,50.66-7.35,45.39-31.62c-7.56-34.79-39.91-10.17-48.95,9.45c-1.38,2.98-2.63,6.05-3.79,9.18
		c-4.42-1.42-8.41-3.13-11.4-4.75c-2.55-1.39-5.41-3.23-8.3-5.39c15.35-14,21.55-32.01,5.95-50.18
		c-12.7-14.79-31.39-4.75-35.43,13.67c-2.87,13.08,3.33,25.98,13.08,36.43c-6.18,4.08-13.32,7.21-20.44,9.14
		c-8.06-27.59-21.56-44.73-44.21-33.31c-13.16,6.64-11.52,25.03-2.97,34.91c9.85,11.38,24.85,13.41,39.73,10.82
		c4.1,19.11,4,39.15,5.04,58.56c1.26,23.51,2.51,47.02,3.77,70.53c-6.74-0.58-13.39-1.47-19.67-2.88
		c-10.04-2.24-12.1-1.96-16.22-12.72c-2.72-7.1-2.32-14.77-5.93-21.76c-8.7-16.85-26.51-28.96-36.98-45.01
		c-11.5-17.63-22.96-39.01-27.37-59.74c-6.97-32.76,3.58-67.64,21.41-94.78c25.95-39.49,65.84-59.25,112.45-62.89
		c42.48-3.32,85.86,19,109.41,54.72C364.42,205.05,370.26,243.01,362.64,279.48z M272.17,280.32c0.21-0.59,0.39-1.2,0.61-1.78
		c2.66-7.94,6.86-14.96,12.63-21.03c18.82-6.5,22.37-0.54,10.66,17.86C290.26,280.89,281.14,281.66,272.17,280.32z M194.74,278.68
		c-3.13,0.34-6.14,0.41-8.93,0.19c-7.3-0.58-31.42-8.4-23.62-21.94c10.59-18.38,28.46,9.74,31.38,17.95
		C194.02,276.13,194.34,277.42,194.74,278.68z"/>
	<path class="st1" d="M432.07,135.97c-15.42,6.98-31.22,13.45-45.04,23.38c-7.4,5.32-0.28,17.72,7.22,12.34
		c13.82-9.93,29.61-16.4,45.04-23.38C447.66,144.53,440.4,132.2,432.07,135.97z"/>
	<path class="st1" d="M328.39,102.54c10.59-13.56,18.71-28.33,27.1-43.3c4.5-8.04-7.84-15.25-12.34-7.21
		c-7.74,13.83-15.08,27.88-24.86,40.41C312.69,99.6,322.74,109.79,328.39,102.54z"/>
	<path class="st1" d="M237.9,72.57c1.11-16.08,1.63-32.17,1.54-48.3c-0.05-9.2-14.34-9.21-14.29,0c0.08,16.12-0.43,32.21-1.54,48.3
		C222.97,81.75,237.26,81.71,237.9,72.57z"/>
	<path class="st1" d="M129.42,100.87c8.04,11.13,27.59,0.67,19.48-10.56c-15.24-21.09-32.51-41.96-42.27-65.88
		c-5.09-12.47-26.91-7.06-21.76,5.56C95.42,55.83,112.95,78.07,129.42,100.87z"/>
	<path class="st1" d="M78.17,158.02c-14.12-10.39-29.33-18.62-45.59-25.14c-8.54-3.42-12.25,10.4-3.8,13.78
		c15.08,6.04,29.1,14.07,42.18,23.69C78.37,175.83,85.5,163.43,78.17,158.02z"/>
	<path class="st1" d="M186.44,147.19c-33.35,9.72-63.48,45.59-68.11,79.82c-0.91,6.75,9.42,9.67,10.34,2.85
		c4.14-30.6,30.56-63.57,60.62-72.34C195.9,155.6,193.09,145.25,186.44,147.19z"/>
	<path class="st2" d="M193.11,165.6c-10.23,1.44-19.83,8.54-26.04,16.56c-4.17,5.39,3.36,13.03,7.58,7.58
		c5.25-6.79,12.63-12.59,21.31-13.81C202.76,174.98,199.87,164.65,193.11,165.6z"/>
</g>
</svg>
